<svg xmlns="http://www.w3.org/2000/svg" xmlns:xlink="http://www.w3.org/1999/xlink" viewBox="0 0 24 24">
  <defs>
    <style>
      .cls-1 {
        clip-path: url(#clip-f2);
      }
    </style>
    <clipPath id="clip-f2">
      <rect width="24" height="24"/>
    </clipPath>
  </defs>
  <g id="f2" class="cls-1">
    <path id="Path_41" data-name="Path 41" d="M10.5,20C3.6,20,0,17.1,0,11.5,0,5.2,4.7,0,10.5,0S21,5.2,21,11.5C21,17.1,17.4,20,10.5,20Zm0-19C5.3,1,1,5.7,1,11.5c0,5,3.2,7.5,9.5,7.5S20,16.5,20,11.5C20,5.7,15.7,1,10.5,1Z" transform="translate(1.5 0.5)"/>
    <circle id="Ellipse_16" data-name="Ellipse 16" cx="1.5" cy="1.5" r="1.5" transform="translate(6 7)"/>
    <circle id="Ellipse_17" data-name="Ellipse 17" cx="1.5" cy="1.5" r="1.5" transform="translate(15 7)"/>
    <path id="m" d="M3.5,2A5.682,5.682,0,0,1,.2.9.494.494,0,0,1,.1.2.494.494,0,0,1,.8.1,4.5,4.5,0,0,0,6.2.1a.494.494,0,0,1,.7.1.494.494,0,0,1-.1.7A5.682,5.682,0,0,1,3.5,2Z" transform="translate(8.509 11.509)"/>
  </g>
</svg>
